ffmpeg started on 2025-06-07 at 15:41:28
Report written to "D:\Convert\FFMetrics\reports\psnr_report-6.txt"
Log level: 32
Command line:
ffmpeg -hide_banner -nostdin -i "G:\\\xc0\xed\xe8\xec\xe5\\\xce\xed\xe3\xee\xe8\xed\xe3\xe8\\!_36_\xce\xf1\xe5\xed\xfc_2024\\DreamCast\\\xd1\xee\xe1\xeb\xe0\xe7\xed 2,5-\xec\xe5\xf0\xed\xee\xe3\xee \xe8\xe7\xec\xe5\xf0\xe5\xed\xe8\xff\\[DC] 2-5 Jigen no Ririsa - 20_Telegram_HEVC.mkv" -i "G:\\\xc0\xed\xe8\xec\xe5\\\xce\xed\xe3\xee\xe8\xed\xe3\xe8\\!_36_\xce\xf1\xe5\xed\xfc_2024\\DreamCast\\\xd1\xee\xe1\xeb\xe0\xe7\xed 2,5-\xec\xe5\xf0\xed\xee\xe3\xee \xe8\xe7\xec\xe5\xf0\xe5\xed\xe8\xff\\[DC] 2-5 Jigen no Ririsa - 20_Telegram.mp4" -lavfi "[0:v]settb=AVTB,setpts=PTS-STARTPTS,format=pix_fmts=yuv420p10,fps=24000/1001,scale=1920:1080:flags=bicubic[main];[1:v]settb=AVTB,setpts=PTS-STARTPTS,format=pix_fmts=yuv420p,fps=24000/1001,scale=1920:1080:flags=bicubic[ref];[main][ref]psnr=eof_action=endall:stats_file='D\\:/Convert/FFMetrics/logs/psnr_logfile-6.txt'" -f null -
Input #0, matroska,webm, from 'G:\Аниме\Онгоинги\!_36_Осень_2024\DreamCast\Соблазн 2,5-мерного измерения\[DC] 2-5 Jigen no Ririsa - 20_Telegram_HEVC.mkv':
  Metadata:
    COMPATIBLE_BRANDS: isomiso2avc1mp41
    MAJOR_BRAND     : isom
    MINOR_VERSION   : 512
    ENCODER         : Lavf61.7.100
  Duration: 00:24:09.13, start: -0.021000, bitrate: 1239 kb/s
  Stream #0:0: Video: hevc (Main 10), yuv420p10le(tv, bt709, progressive), 1920x1080 [SAR 1:1 DAR 16:9], 23.98 fps, 23.98 tbr, 1k tbn (default)
      Metadata:
        HANDLER_NAME    : VideoHandler
        VENDOR_ID       : [0][0][0][0]
        ENCODER         : Lavc61.19.100 libx265
        BPS             : 1041903
        DURATION        : 00:24:08.989708333
        NUMBER_OF_FRAMES: 34741
        NUMBER_OF_BYTES : 188713368
        _STATISTICS_WRITING_APP: mkvpropedit v66.0.0 ('Josie') 64-bit
        _STATISTICS_WRITING_DATE_UTC: 2025-06-04 13:15:33
        _STATISTICS_TAGS: BPS DURATION NUMBER_OF_FRAMES NUMBER_OF_BYTES
  Stream #0:1: Audio: aac (LC), 48000 Hz, stereo, fltp (default)
      Metadata:
        HANDLER_NAME    : SoundHandler
        VENDOR_ID       : [0][0][0][0]
        ENCODER         : Lavc61.19.100 aac
        BPS             : 193542
        DURATION        : 00:24:09.130000000
        NUMBER_OF_FRAMES: 67929
        NUMBER_OF_BYTES : 35058582
        _STATISTICS_WRITING_APP: mkvpropedit v66.0.0 ('Josie') 64-bit
        _STATISTICS_WRITING_DATE_UTC: 2025-06-04 13:15:33
        _STATISTICS_TAGS: BPS DURATION NUMBER_OF_FRAMES NUMBER_OF_BYTES
Input #1, mov,mp4,m4a,3gp,3g2,mj2, from 'G:\Аниме\Онгоинги\!_36_Осень_2024\DreamCast\Соблазн 2,5-мерного измерения\[DC] 2-5 Jigen no Ririsa - 20_Telegram.mp4':
  Metadata:
    major_brand     : isom
    minor_version   : 512
    compatible_brands: isomiso2avc1mp41
    encoder         : Lavf61.1.100
  Duration: 00:24:09.08, start: 0.000000, bitrate: 3916 kb/s
  Stream #1:0[0x1](und): Video: h264 (High) (avc1 / 0x31637661), yuv420p(tv, bt709, progressive), 1920x1080 [SAR 1:1 DAR 16:9], 3768 kb/s, 23.98 fps, 23.98 tbr, 24k tbn (default)
      Metadata:
        handler_name    : VideoHandler
        vendor_id       : [0][0][0][0]
        encoder         : Lavc61.3.100 h264_qsv
  Stream #1:1[0x2](und): Audio: aac (HE-AACv2) (mp4a / 0x6134706D), 48000 Hz, stereo, fltp, 144 kb/s (default)
      Metadata:
        handler_name    : SoundHandler
        vendor_id       : [0][0][0][0]
Stream mapping:
  Stream #0:0 (hevc) -> settb:default
  Stream #1:0 (h264) -> settb:default
  psnr:default -> Stream #0:0 (wrapped_avframe)
  Stream #0:1 -> #0:1 (aac (native) -> pcm_s16le (native))
Output #0, null, to 'pipe:':
  Metadata:
    COMPATIBLE_BRANDS: isomiso2avc1mp41
    MAJOR_BRAND     : isom
    MINOR_VERSION   : 512
    encoder         : Lavf61.7.100
  Stream #0:0: Video: wrapped_avframe, yuv420p10le(tv, bt709, progressive), 1920x1080 [SAR 1:1 DAR 16:9], q=2-31, 200 kb/s, 23.98 fps, 23.98 tbn
      Metadata:
        encoder         : Lavc61.19.100 wrapped_avframe
  Stream #0:1: Audio: pcm_s16le, 48000 Hz, stereo, s16, 1536 kb/s (default)
      Metadata:
        HANDLER_NAME    : SoundHandler
        VENDOR_ID       : [0][0][0][0]
        _STATISTICS_TAGS: BPS DURATION NUMBER_OF_FRAMES NUMBER_OF_BYTES
        BPS             : 193542
        DURATION        : 00:24:09.130000000
        NUMBER_OF_FRAMES: 67929
        NUMBER_OF_BYTES : 35058582
        _STATISTICS_WRITING_APP: mkvpropedit v66.0.0 ('Josie') 64-bit
        _STATISTICS_WRITING_DATE_UTC: 2025-06-04 13:15:33
        encoder         : Lavc61.19.100 pcm_s16le
frame=  179 fps=0.0 q=-0.0 size=N/A time=00:00:07.46 bitrate=N/A speed=14.4x    frame=  417 fps=405 q=-0.0 size=N/A time=00:00:17.39 bitrate=N/A speed=16.9x    frame=  658 fps=423 q=-0.0 size=N/A time=00:00:27.44 bitrate=N/A speed=17.7x    frame=  900 fps=436 q=-0.0 size=N/A time=00:00:37.53 bitrate=N/A speed=18.2x    frame= 1148 fps=446 q=-0.0 size=N/A time=00:00:47.88 bitrate=N/A speed=18.6x    frame= 1405 fps=453 q=-0.0 size=N/A time=00:00:58.60 bitrate=N/A speed=18.9x    frame= 1642 fps=455 q=-0.0 size=N/A time=00:01:08.48 bitrate=N/A speed=  19x    frame= 1845 fps=448 q=-0.0 size=N/A time=00:01:16.95 bitrate=N/A speed=18.7x    frame= 2089 fps=449 q=-0.0 size=N/A time=00:01:27.12 bitrate=N/A speed=18.7x    frame= 2329 fps=451 q=-0.0 size=N/A time=00:01:37.13 bitrate=N/A speed=18.8x    frame= 2574 fps=454 q=-0.0 size=N/A time=00:01:47.35 bitrate=N/A speed=18.9x    frame= 2798 fps=452 q=-0.0 size=N/A time=00:01:56.69 bitrate=N/A speed=18.8x    frame= 2960 fps=442 q=-0.0 size=N/A time=00:02:03.45 bitrate=N/A speed=18.4x    frame= 3146 fps=435 q=-0.0 size=N/A time=00:02:11.21 bitrate=N/A speed=18.2x    frame= 3357 fps=434 q=-0.0 size=N/A time=00:02:20.01 bitrate=N/A speed=18.1x    frame= 3570 fps=432 q=-0.0 size=N/A time=00:02:28.89 bitrate=N/A speed=  18x    frame= 3776 fps=431 q=-0.0 size=N/A time=00:02:37.49 bitrate=N/A speed=  18x    frame= 4015 fps=433 q=-0.0 size=N/A time=00:02:47.50 bitrate=N/A speed=18.1x    frame= 4294 fps=438 q=-0.0 size=N/A time=00:02:59.09 bitrate=N/A speed=18.3x    frame= 4566 fps=443 q=-0.0 size=N/A time=00:03:10.44 bitrate=N/A speed=18.5x    frame= 4823 fps=446 q=-0.0 size=N/A time=00:03:21.15 bitrate=N/A speed=18.6x    frame= 5071 fps=447 q=-0.0 size=N/A time=00:03:31.50 bitrate=N/A speed=18.6x    frame= 5326 fps=449 q=-0.0 size=N/A time=00:03:42.13 bitrate=N/A speed=18.7x    frame= 5582 fps=451 q=-0.0 size=N/A time=00:03:52.81 bitrate=N/A speed=18.8x    frame= 5787 fps=449 q=-0.0 size=N/A time=00:04:01.36 bitrate=N/A speed=18.7x    frame= 5968 fps=445 q=-0.0 size=N/A time=00:04:08.91 bitrate=N/A speed=18.6x    frame= 6238 fps=448 q=-0.0 size=N/A time=00:04:20.17 bitrate=N/A speed=18.7x    frame= 6498 fps=450 q=-0.0 size=N/A time=00:04:31.02 bitrate=N/A speed=18.8x    frame= 6774 fps=453 q=-0.0 size=N/A time=00:04:42.53 bitrate=N/A speed=18.9x    frame= 7022 fps=454 q=-0.0 size=N/A time=00:04:52.87 bitrate=N/A speed=18.9x    frame= 7277 fps=455 q=-0.0 size=N/A time=00:05:03.51 bitrate=N/A speed=  19x    frame= 7537 fps=457 q=-0.0 size=N/A time=00:05:14.35 bitrate=N/A speed=  19x    frame= 7792 fps=458 q=-0.0 size=N/A time=00:05:24.99 bitrate=N/A speed=19.1x    frame= 8066 fps=460 q=-0.0 size=N/A time=00:05:36.41 bitrate=N/A speed=19.2x    frame= 8313 fps=460 q=-0.0 size=N/A time=00:05:46.72 bitrate=N/A speed=19.2x    frame= 8548 fps=460 q=-0.0 size=N/A time=00:05:56.52 bitrate=N/A speed=19.2x    frame= 8803 fps=461 q=-0.0 size=N/A time=00:06:07.15 bitrate=N/A speed=19.2x    frame= 9022 fps=460 q=-0.0 size=N/A time=00:06:16.29 bitrate=N/A speed=19.2x    frame= 9262 fps=460 q=-0.0 size=N/A time=00:06:26.30 bitrate=N/A speed=19.2x    frame= 9513 fps=461 q=-0.0 size=N/A time=00:06:36.77 bitrate=N/A speed=19.2x    frame= 9758 fps=461 q=-0.0 size=N/A time=00:06:46.98 bitrate=N/A speed=19.2x    frame=10008 fps=462 q=-0.0 size=N/A time=00:06:57.41 bitrate=N/A speed=19.3x    frame=10261 fps=462 q=-0.0 size=N/A time=00:07:07.96 bitrate=N/A speed=19.3x    frame=10501 fps=463 q=-0.0 size=N/A time=00:07:17.97 bitrate=N/A speed=19.3x    frame=10731 fps=462 q=-0.0 size=N/A time=00:07:27.57 bitrate=N/A speed=19.3x    frame=10976 fps=462 q=-0.0 size=N/A time=00:07:37.79 bitrate=N/A speed=19.3x    frame=11207 fps=462 q=-0.0 size=N/A time=00:07:47.42 bitrate=N/A speed=19.3x    frame=11476 fps=463 q=-0.0 size=N/A time=00:07:58.64 bitrate=N/A speed=19.3x    frame=11711 fps=463 q=-0.0 size=N/A time=00:08:08.44 bitrate=N/A speed=19.3x    frame=11943 fps=463 q=-0.0 size=N/A time=00:08:18.12 bitrate=N/A speed=19.3x    frame=12105 fps=460 q=-0.0 size=N/A time=00:08:24.87 bitrate=N/A speed=19.2x    frame=12346 fps=460 q=-0.0 size=N/A time=00:08:34.93 bitrate=N/A speed=19.2x    frame=12586 fps=460 q=-0.0 size=N/A time=00:08:44.94 bitrate=N/A speed=19.2x    frame=12844 fps=461 q=-0.0 size=N/A time=00:08:55.70 bitrate=N/A speed=19.2x    frame=13117 fps=462 q=-0.0 size=N/A time=00:09:07.08 bitrate=N/A speed=19.3x    frame=13370 fps=463 q=-0.0 size=N/A time=00:09:17.64 bitrate=N/A speed=19.3x    frame=13593 fps=462 q=-0.0 size=N/A time=00:09:26.94 bitrate=N/A speed=19.3x    frame=13858 fps=463 q=-0.0 size=N/A time=00:09:37.99 bitrate=N/A speed=19.3x    frame=14041 fps=461 q=-0.0 size=N/A time=00:09:45.62 bitrate=N/A speed=19.2x    frame=14242 fps=460 q=-0.0 size=N/A time=00:09:54.01 bitrate=N/A speed=19.2x    frame=14487 fps=460 q=-0.0 size=N/A time=00:10:04.22 bitrate=N/A speed=19.2x    frame=14749 fps=461 q=-0.0 size=N/A time=00:10:15.15 bitrate=N/A speed=19.2x    frame=14995 fps=461 q=-0.0 size=N/A time=00:10:25.41 bitrate=N/A speed=19.2x    frame=15260 fps=462 q=-0.0 size=N/A time=00:10:36.46 bitrate=N/A speed=19.3x    frame=15531 fps=463 q=-0.0 size=N/A time=00:10:47.77 bitrate=N/A speed=19.3x    frame=15777 fps=463 q=-0.0 size=N/A time=00:10:58.03 bitrate=N/A speed=19.3x    frame=16036 fps=464 q=-0.0 size=N/A time=00:11:08.83 bitrate=N/A speed=19.4x    frame=16300 fps=465 q=-0.0 size=N/A time=00:11:19.84 bitrate=N/A speed=19.4x    frame=16558 fps=465 q=-0.0 size=N/A time=00:11:30.60 bitrate=N/A speed=19.4x    frame=16812 fps=466 q=-0.0 size=N/A time=00:11:41.20 bitrate=N/A speed=19.4x    frame=17057 fps=466 q=-0.0 size=N/A time=00:11:51.41 bitrate=N/A speed=19.4x    frame=17310 fps=466 q=-0.0 size=N/A time=00:12:01.97 bitrate=N/A speed=19.4x    frame=17544 fps=466 q=-0.0 size=N/A time=00:12:11.73 bitrate=N/A speed=19.4x    frame=17779 fps=466 q=-0.0 size=N/A time=00:12:21.53 bitrate=N/A speed=19.4x    frame=18025 fps=466 q=-0.0 size=N/A time=00:12:31.79 bitrate=N/A speed=19.4x    frame=18282 fps=466 q=-0.0 size=N/A time=00:12:42.51 bitrate=N/A speed=19.4x    frame=18548 fps=467 q=-0.0 size=N/A time=00:12:53.60 bitrate=N/A speed=19.5x    frame=18806 fps=467 q=-0.0 size=N/A time=00:13:04.40 bitrate=N/A speed=19.5x    frame=19065 fps=468 q=-0.0 size=N/A time=00:13:15.16 bitrate=N/A speed=19.5x    frame=19298 fps=468 q=-0.0 size=N/A time=00:13:24.88 bitrate=N/A speed=19.5x    frame=19562 fps=468 q=-0.0 size=N/A time=00:13:35.89 bitrate=N/A speed=19.5x    frame=19799 fps=468 q=-0.0 size=N/A time=00:13:45.78 bitrate=N/A speed=19.5x    frame=20034 fps=468 q=-0.0 size=N/A time=00:13:55.58 bitrate=N/A speed=19.5x    frame=20280 fps=468 q=-0.0 size=N/A time=00:14:05.84 bitrate=N/A speed=19.5x    frame=20511 fps=468 q=-0.0 size=N/A time=00:14:15.47 bitrate=N/A speed=19.5x    frame=20763 fps=468 q=-0.0 size=N/A time=00:14:25.99 bitrate=N/A speed=19.5x    frame=21039 fps=469 q=-0.0 size=N/A time=00:14:37.50 bitrate=N/A speed=19.6x    frame=21290 fps=469 q=-0.0 size=N/A time=00:14:47.97 bitrate=N/A speed=19.6x    frame=21522 fps=469 q=-0.0 size=N/A time=00:14:57.64 bitrate=N/A speed=19.6x    frame=21749 fps=468 q=-0.0 size=N/A time=00:15:07.11 bitrate=N/A speed=19.5x    frame=22007 fps=469 q=-0.0 size=N/A time=00:15:17.87 bitrate=N/A speed=19.6x    frame=22256 fps=469 q=-0.0 size=N/A time=00:15:28.26 bitrate=N/A speed=19.6x    frame=22479 fps=469 q=-0.0 size=N/A time=00:15:37.56 bitrate=N/A speed=19.5x    frame=22717 fps=469 q=-0.0 size=N/A time=00:15:47.48 bitrate=N/A speed=19.5x    frame=22966 fps=469 q=-0.0 size=N/A time=00:15:57.87 bitrate=N/A speed=19.5x    frame=23218 fps=469 q=-0.0 size=N/A time=00:16:08.38 bitrate=N/A speed=19.6x    frame=23419 fps=468 q=-0.0 size=N/A time=00:16:16.76 bitrate=N/A speed=19.5x    frame=23622 fps=467 q=-0.0 size=N/A time=00:16:25.23 bitrate=N/A speed=19.5x    frame=23894 fps=468 q=-0.0 size=N/A time=00:16:36.57 bitrate=N/A speed=19.5x    frame=24147 fps=468 q=-0.0 size=N/A time=00:16:47.13 bitrate=N/A speed=19.5x    frame=24389 fps=468 q=-0.0 size=N/A time=00:16:57.22 bitrate=N/A speed=19.5x    frame=24645 fps=468 q=-0.0 size=N/A time=00:17:07.90 bitrate=N/A speed=19.5x    frame=24905 fps=469 q=-0.0 size=N/A time=00:17:18.74 bitrate=N/A speed=19.6x    frame=25113 fps=468 q=-0.0 size=N/A time=00:17:27.42 bitrate=N/A speed=19.5x    frame=25307 fps=467 q=-0.0 size=N/A time=00:17:35.51 bitrate=N/A speed=19.5x    frame=25494 fps=466 q=-0.0 size=N/A time=00:17:43.31 bitrate=N/A speed=19.4x    frame=25711 fps=466 q=-0.0 size=N/A time=00:17:52.36 bitrate=N/A speed=19.4x    frame=25952 fps=466 q=-0.0 size=N/A time=00:18:02.41 bitrate=N/A speed=19.4x    frame=26180 fps=466 q=-0.0 size=N/A time=00:18:11.92 bitrate=N/A speed=19.4x    frame=26390 fps=465 q=-0.0 size=N/A time=00:18:20.68 bitrate=N/A speed=19.4x    frame=26610 fps=465 q=-0.0 size=N/A time=00:18:29.85 bitrate=N/A speed=19.4x    frame=26845 fps=465 q=-0.0 size=N/A time=00:18:39.66 bitrate=N/A speed=19.4x    frame=27070 fps=464 q=-0.0 size=N/A time=00:18:49.04 bitrate=N/A speed=19.4x    frame=27272 fps=464 q=-0.0 size=N/A time=00:18:57.46 bitrate=N/A speed=19.3x    frame=27485 fps=463 q=-0.0 size=N/A time=00:19:06.35 bitrate=N/A speed=19.3x    frame=27740 fps=464 q=-0.0 size=N/A time=00:19:16.98 bitrate=N/A speed=19.3x    frame=27979 fps=464 q=-0.0 size=N/A time=00:19:26.95 bitrate=N/A speed=19.3x    frame=28214 fps=464 q=-0.0 size=N/A time=00:19:36.75 bitrate=N/A speed=19.3x    frame=28453 fps=464 q=-0.0 size=N/A time=00:19:46.72 bitrate=N/A speed=19.3x    frame=28660 fps=463 q=-0.0 size=N/A time=00:19:55.36 bitrate=N/A speed=19.3x    frame=28848 fps=462 q=-0.0 size=N/A time=00:20:03.20 bitrate=N/A speed=19.3x    frame=29040 fps=462 q=-0.0 size=N/A time=00:20:11.21 bitrate=N/A speed=19.3x    frame=29240 fps=461 q=-0.0 size=N/A time=00:20:19.55 bitrate=N/A speed=19.2x    frame=29415 fps=460 q=-0.0 size=N/A time=00:20:26.85 bitrate=N/A speed=19.2x    frame=29625 fps=459 q=-0.0 size=N/A time=00:20:35.60 bitrate=N/A speed=19.2x    frame=29827 fps=459 q=-0.0 size=N/A time=00:20:44.03 bitrate=N/A speed=19.1x    frame=30033 fps=459 q=-0.0 size=N/A time=00:20:52.62 bitrate=N/A speed=19.1x    frame=30228 fps=458 q=-0.0 size=N/A time=00:21:00.75 bitrate=N/A speed=19.1x    frame=30474 fps=458 q=-0.0 size=N/A time=00:21:11.01 bitrate=N/A speed=19.1x    frame=30729 fps=458 q=-0.0 size=N/A time=00:21:21.65 bitrate=N/A speed=19.1x    frame=30993 fps=459 q=-0.0 size=N/A time=00:21:32.66 bitrate=N/A speed=19.1x    frame=31230 fps=459 q=-0.0 size=N/A time=00:21:42.55 bitrate=N/A speed=19.1x    frame=31478 fps=459 q=-0.0 size=N/A time=00:21:52.89 bitrate=N/A speed=19.1x    frame=31739 fps=459 q=-0.0 size=N/A time=00:22:03.78 bitrate=N/A speed=19.2x    frame=32000 fps=460 q=-0.0 size=N/A time=00:22:14.66 bitrate=N/A speed=19.2x    frame=32227 fps=459 q=-0.0 size=N/A time=00:22:24.13 bitrate=N/A speed=19.2x    frame=32504 fps=460 q=-0.0 size=N/A time=00:22:35.68 bitrate=N/A speed=19.2x    frame=32708 fps=460 q=-0.0 size=N/A time=00:22:44.19 bitrate=N/A speed=19.2x    frame=32962 fps=460 q=-0.0 size=N/A time=00:22:54.79 bitrate=N/A speed=19.2x    frame=33205 fps=460 q=-0.0 size=N/A time=00:23:04.92 bitrate=N/A speed=19.2x    frame=33460 fps=460 q=-0.0 size=N/A time=00:23:15.56 bitrate=N/A speed=19.2x    frame=33682 fps=460 q=-0.0 size=N/A time=00:23:24.82 bitrate=N/A speed=19.2x    frame=33935 fps=460 q=-0.0 size=N/A time=00:23:35.37 bitrate=N/A speed=19.2x    frame=34137 fps=460 q=-0.0 size=N/A time=00:23:43.79 bitrate=N/A speed=19.2x    frame=34381 fps=460 q=-0.0 size=N/A time=00:23:53.97 bitrate=N/A speed=19.2x    frame=34580 fps=459 q=-0.0 size=N/A time=00:24:02.27 bitrate=N/A speed=19.2x    [Parsed_psnr_10 @ 0000025cfd0fc440] PSNR y:46.825801 u:50.173570 v:49.868726 average:47.653480 min:40.649696 max:inf
[out#0/null @ 0000025cfc7c4780] video:14928KiB audio:271716KiB subtitle:0KiB other streams:0KiB global headers:0KiB muxing overhead: unknown
frame=34741 fps=460 q=-0.0 Lsize=N/A time=00:24:08.98 bitrate=N/A speed=19.2x    
